<svg xmlns="http://www.w3.org/2000/svg" xmlns:xlink="http://www.w3.org/1999/xlink" width="200" zoomAndPan="magnify" viewBox="0 0 150 74.999997" height="100" preserveAspectRatio="xMidYMid meet" version="1.0"><defs><g/><clipPath id="c5cdbc74c3"><path d="M 7.125 37 L 54.875 37 L 54.875 57.839844 L 7.125 57.839844 Z M 7.125 37 " clip-rule="nonzero"/></clipPath><clipPath id="2fe650c078"><path d="M 38 17.339844 L 42 17.339844 L 42 30 L 38 30 Z M 38 17.339844 " clip-rule="nonzero"/></clipPath><clipPath id="61fccd2f35"><path d="M 42 17.339844 L 46 17.339844 L 46 30 L 42 30 Z M 42 17.339844 " clip-rule="nonzero"/></clipPath><clipPath id="362b1645ab"><path d="M 27.292969 18 L 34.792969 18 L 34.792969 24.484375 L 27.292969 24.484375 Z M 27.292969 18 " clip-rule="nonzero"/></clipPath><clipPath id="135baa9243"><path d="M 25.445312 39.808594 L 36.695312 39.808594 L 36.695312 54.808594 L 25.445312 54.808594 Z M 25.445312 39.808594 " clip-rule="nonzero"/></clipPath></defs><g clip-path="url(#c5cdbc74c3)"><path fill="#5271ff" d="M 54.015625 37.027344 L 7.984375 37.027344 C 7.410156 37.027344 7.125 37.339844 7.125 37.980469 C 7.125 38.671875 7.4375 39.003906 7.929688 39.046875 C 8.746094 39.121094 10.773438 39.296875 11.792969 39.382812 C 12.160156 39.417969 12.4375 39.621094 12.503906 39.953125 C 12.960938 42.214844 14.390625 49.4375 15.101562 52.742188 C 16.03125 57.046875 18.21875 57.882812 21.507812 57.882812 L 40.488281 57.882812 C 43.78125 57.882812 45.964844 57.046875 46.898438 52.742188 C 47.609375 49.4375 49.035156 42.214844 49.496094 39.953125 C 49.558594 39.625 49.835938 39.417969 50.207031 39.382812 C 51.226562 39.296875 53.253906 39.121094 54.070312 39.046875 C 54.5625 39.003906 54.875 38.671875 54.875 37.980469 C 54.878906 37.339844 54.589844 37.027344 54.015625 37.027344 " fill-opacity="1" fill-rule="nonzero"/></g><path fill="#5271ff" d="M 13.277344 36.171875 C 17.761719 35.914062 31.207031 35.140625 31.207031 35.140625 L 31.277344 35.140625 L 49.214844 34.105469 C 49.714844 34.082031 49.648438 33.8125 49.605469 33.6875 C 48.699219 31.113281 40.390625 30.316406 31.886719 30.714844 L 31.957031 30.710938 L 31.851562 28.839844 L 33.542969 28.738281 C 34.519531 28.683594 34.675781 27.882812 33.925781 27.378906 C 33.25 26.921875 32.144531 26.539062 30.792969 26.601562 L 30.792969 26.59375 C 30.78125 26.59375 30.765625 26.601562 30.757812 26.601562 C 30.746094 26.601562 30.734375 26.601562 30.71875 26.601562 L 30.722656 26.605469 C 29.371094 26.699219 28.316406 27.203125 27.699219 27.734375 C 27.011719 28.328125 27.253906 29.101562 28.226562 29.046875 L 29.921875 28.953125 L 30.027344 30.824219 L 30.101562 30.820312 C 21.785156 31.378906 13.796875 33.429688 12.890625 35.710938 C 12.820312 35.871094 12.84375 36.199219 13.277344 36.171875 " fill-opacity="1" fill-rule="nonzero"/><g clip-path="url(#2fe650c078)"><path fill="#5271ff" d="M 39.464844 28.050781 C 39.273438 28.367188 39.375 28.785156 39.695312 28.980469 C 39.800781 29.046875 39.921875 29.078125 40.042969 29.078125 C 40.269531 29.078125 40.492188 28.964844 40.617188 28.75 C 42.277344 26.015625 41.273438 24.40625 40.460938 23.109375 C 39.65625 21.8125 39.015625 20.785156 40.597656 18.511719 C 40.808594 18.199219 40.734375 17.78125 40.429688 17.566406 C 40.121094 17.355469 39.703125 17.429688 39.492188 17.738281 C 37.40625 20.75 38.46875 22.453125 39.320312 23.828125 C 40.085938 25.054688 40.691406 26.03125 39.464844 28.050781 " fill-opacity="1" fill-rule="nonzero"/></g><g clip-path="url(#61fccd2f35)"><path fill="#5271ff" d="M 43.832031 28.476562 C 43.640625 28.792969 43.738281 29.210938 44.058594 29.402344 C 44.167969 29.46875 44.285156 29.5 44.410156 29.5 C 44.632812 29.5 44.859375 29.386719 44.984375 29.175781 C 46.640625 26.441406 45.632812 24.828125 44.828125 23.535156 C 44.019531 22.230469 43.382812 21.210938 44.960938 18.933594 C 45.175781 18.625 45.09375 18.203125 44.792969 17.992188 C 44.484375 17.773438 44.066406 17.855469 43.855469 18.15625 C 41.769531 21.167969 42.832031 22.875 43.6875 24.25 C 44.453125 25.476562 45.058594 26.449219 43.832031 28.476562 " fill-opacity="1" fill-rule="nonzero"/></g><path fill="#5271ff" d="M 48.074219 29.742188 C 47.882812 30.0625 47.984375 30.476562 48.304688 30.675781 C 48.410156 30.738281 48.535156 30.773438 48.652344 30.773438 C 48.878906 30.773438 49.101562 30.65625 49.226562 30.445312 C 50.882812 27.710938 49.882812 26.097656 49.070312 24.800781 C 48.261719 23.503906 47.625 22.480469 49.207031 20.199219 C 49.414062 19.894531 49.34375 19.472656 49.035156 19.257812 C 48.734375 19.046875 48.308594 19.125 48.101562 19.429688 C 46.015625 22.441406 47.074219 24.144531 47.925781 25.519531 C 48.695312 26.75 49.300781 27.722656 48.074219 29.742188 " fill-opacity="1" fill-rule="nonzero"/><g clip-path="url(#362b1645ab)"><path fill="#ff1616" d="M 34.445312 19.785156 C 34.058594 17.777344 31.640625 17.742188 31.042969 19.621094 C 30.449219 17.742188 28.03125 17.777344 27.644531 19.785156 C 27.292969 21.605469 31.042969 24.476562 31.042969 24.476562 C 31.042969 24.476562 34.792969 21.605469 34.445312 19.785156 Z M 34.445312 19.785156 " fill-opacity="1" fill-rule="nonzero"/></g><g clip-path="url(#135baa9243)"><path fill="#ffffff" d="M 30.742188 44.65625 C 30.746094 44.617188 30.738281 44.582031 30.71875 44.546875 C 30.71875 44.546875 28.703125 41.105469 28.160156 40.171875 C 28.035156 39.960938 27.761719 39.890625 27.550781 40.011719 C 27.449219 40.070312 27.375 40.167969 27.34375 40.277344 C 27.3125 40.390625 27.328125 40.511719 27.386719 40.609375 C 27.792969 41.300781 28.988281 43.34375 29.324219 43.917969 C 29.324219 43.917969 29.160156 44.007812 29.160156 44.007812 C 29.160156 44.007812 27.230469 40.710938 27.230469 40.710938 C 27.167969 40.609375 27.070312 40.535156 26.953125 40.503906 C 26.835938 40.472656 26.714844 40.488281 26.609375 40.546875 C 26.507812 40.605469 26.4375 40.699219 26.40625 40.808594 C 26.375 40.917969 26.390625 41.039062 26.449219 41.136719 C 26.449219 41.136719 28.386719 44.449219 28.386719 44.449219 C 28.386719 44.449219 28.226562 44.542969 28.226562 44.542969 C 28.226562 44.542969 26.289062 41.234375 26.289062 41.234375 C 26.230469 41.136719 26.132812 41.0625 26.019531 41.03125 C 25.90625 41 25.785156 41.019531 25.683594 41.074219 C 25.613281 41.113281 25.582031 41.195312 25.601562 41.269531 C 25.621094 41.347656 25.691406 41.398438 25.769531 41.398438 C 25.691406 41.398438 25.621094 41.347656 25.601562 41.269531 C 25.582031 41.195312 25.613281 41.113281 25.683594 41.074219 C 25.582031 41.132812 25.507812 41.230469 25.476562 41.34375 C 25.445312 41.453125 25.460938 41.574219 25.519531 41.675781 C 26.066406 42.609375 28.082031 46.050781 28.082031 46.050781 C 28.101562 46.082031 28.128906 46.109375 28.164062 46.125 L 29.351562 46.625 C 29.351562 46.625 33.636719 53.945312 33.636719 53.945312 C 33.980469 54.535156 34.75 54.738281 35.347656 54.398438 C 35.296875 54.425781 35.261719 54.417969 35.261719 54.417969 C 35.324219 54.417969 35.382812 54.386719 35.414062 54.332031 C 35.445312 54.28125 35.445312 54.214844 35.414062 54.160156 C 35.414062 54.160156 30.992188 46.605469 30.589844 45.917969 C 30.589844 45.917969 30.742188 44.65625 30.742188 44.65625 Z M 27.5 54.167969 L 30.453125 49.128906 C 30.5 49.046875 30.472656 48.941406 30.386719 48.894531 C 30.304688 48.84375 30.195312 48.875 30.148438 48.957031 L 27.101562 54.160156 C 27.070312 54.214844 27.070312 54.28125 27.101562 54.332031 C 27.132812 54.386719 27.191406 54.417969 27.253906 54.417969 C 27.253906 54.417969 27.21875 54.425781 27.167969 54.398438 C 27.453125 54.558594 27.796875 54.605469 28.117188 54.519531 C 28.4375 54.433594 28.710938 54.226562 28.878906 53.945312 C 29.683594 52.566406 31.109375 50.136719 31.109375 50.136719 C 31.15625 50.050781 31.128906 49.945312 31.042969 49.898438 C 30.960938 49.851562 30.851562 49.878906 30.804688 49.960938 C 30.804688 49.960938 29.378906 52.394531 28.574219 53.769531 C 28.457031 53.976562 28.257812 54.125 28.027344 54.1875 C 27.851562 54.230469 27.667969 54.226562 27.5 54.167969 Z M 35.011719 54.167969 C 34.613281 54.304688 34.15625 54.144531 33.9375 53.769531 C 32.675781 51.609375 29.625 46.402344 29.625 46.402344 C 29.605469 46.367188 29.578125 46.34375 29.542969 46.328125 L 28.355469 45.828125 C 28.355469 45.828125 25.824219 41.503906 25.824219 41.503906 C 25.8125 41.480469 25.808594 41.457031 25.8125 41.433594 C 25.820312 41.40625 25.835938 41.386719 25.859375 41.375 C 25.832031 41.390625 25.800781 41.398438 25.769531 41.398438 L 25.859375 41.375 C 25.878906 41.363281 25.90625 41.359375 25.929688 41.367188 C 25.953125 41.371094 25.972656 41.386719 25.988281 41.410156 C 26.460938 42.214844 28.007812 44.863281 28.007812 44.863281 C 28.058594 44.945312 28.164062 44.976562 28.25 44.925781 L 28.714844 44.660156 C 28.800781 44.613281 28.828125 44.507812 28.78125 44.425781 C 28.78125 44.425781 27.222656 41.761719 26.753906 40.964844 C 26.742188 40.945312 26.738281 40.921875 26.746094 40.898438 C 26.75 40.878906 26.765625 40.859375 26.785156 40.847656 C 26.808594 40.832031 26.835938 40.832031 26.863281 40.835938 C 26.890625 40.84375 26.910156 40.859375 26.925781 40.882812 L 28.941406 44.332031 C 28.992188 44.414062 29.097656 44.441406 29.183594 44.394531 L 29.648438 44.128906 C 29.734375 44.082031 29.761719 43.976562 29.714844 43.894531 C 29.714844 43.894531 28.164062 41.246094 27.691406 40.4375 C 27.679688 40.417969 27.675781 40.390625 27.683594 40.367188 C 27.6875 40.34375 27.703125 40.324219 27.726562 40.3125 C 27.769531 40.285156 27.828125 40.300781 27.855469 40.34375 L 30.386719 44.671875 L 30.234375 45.933594 C 30.230469 45.972656 30.238281 46.007812 30.253906 46.042969 Z M 31.914062 45.9375 L 31.507812 46.632812 C 31.460938 46.714844 31.488281 46.820312 31.570312 46.871094 C 31.65625 46.917969 31.761719 46.890625 31.8125 46.804688 L 32.257812 46.042969 L 32.242188 46.050781 C 32.273438 46.015625 32.296875 45.964844 32.269531 45.894531 C 31.691406 44.210938 32.304688 42.351562 33.78125 41.332031 C 34.148438 41.074219 34.511719 40.855469 34.832031 40.722656 C 35.023438 40.644531 35.195312 40.597656 35.339844 40.601562 C 35.640625 40.605469 35.964844 40.796875 36.128906 41.050781 C 36.203125 41.171875 36.25 41.34375 36.277344 41.546875 C 36.324219 41.882812 36.3125 42.300781 36.273438 42.742188 C 36.117188 44.511719 34.792969 45.96875 33.023438 46.3125 L 32.890625 46.402344 L 32.054688 47.828125 C 32.003906 47.910156 32.035156 48.015625 32.117188 48.066406 C 32.199219 48.113281 32.308594 48.085938 32.355469 48 L 33.152344 46.640625 C 35.042969 46.246094 36.453125 44.675781 36.625 42.773438 C 36.695312 41.96875 36.660156 41.238281 36.425781 40.867188 C 36.207031 40.519531 35.761719 40.265625 35.347656 40.253906 C 34.910156 40.246094 34.25 40.582031 33.578125 41.050781 C 31.996094 42.144531 31.324219 44.125 31.914062 45.9375 Z M 33.585938 42.402344 C 34.09375 41.832031 34.589844 41.460938 35.09375 41.398438 C 35.191406 41.382812 35.257812 41.296875 35.246094 41.203125 C 35.234375 41.109375 35.144531 41.042969 35.050781 41.054688 C 34.476562 41.128906 33.894531 41.527344 33.324219 42.175781 C 33.257812 42.246094 33.265625 42.355469 33.339844 42.417969 C 33.414062 42.480469 33.523438 42.476562 33.585938 42.402344 Z M 33.585938 42.402344 " fill-opacity="1" fill-rule="evenodd"/></g><g fill="#272424" fill-opacity="1"><g transform="translate(61.193828, 41.503079)"><g><path d="M 8.859375 -7.078125 C 9.671875 -6.859375 10.304688 -6.460938 10.765625 -5.890625 C 11.234375 -5.328125 11.46875 -4.648438 11.46875 -3.859375 C 11.46875 -3.140625 11.269531 -2.488281 10.875 -1.90625 C 10.476562 -1.320312 9.875 -0.859375 9.0625 -0.515625 C 8.257812 -0.171875 7.273438 0 6.109375 0 L 1.234375 0 L 1.234375 -13.328125 L 5.90625 -13.328125 C 6.945312 -13.328125 7.84375 -13.179688 8.59375 -12.890625 C 9.34375 -12.609375 9.910156 -12.207031 10.296875 -11.6875 C 10.691406 -11.164062 10.890625 -10.566406 10.890625 -9.890625 C 10.890625 -9.210938 10.707031 -8.628906 10.34375 -8.140625 C 9.976562 -7.660156 9.484375 -7.304688 8.859375 -7.078125 Z M 4.578125 -10.578125 L 4.578125 -7.140625 L 5.65625 -7.140625 C 6.21875 -7.140625 6.664062 -7.304688 7 -7.640625 C 7.332031 -7.984375 7.5 -8.390625 7.5 -8.859375 C 7.5 -9.328125 7.332031 -9.726562 7 -10.0625 C 6.664062 -10.40625 6.21875 -10.578125 5.65625 -10.578125 Z M 5.984375 -2.765625 C 6.597656 -2.765625 7.097656 -2.957031 7.484375 -3.34375 C 7.878906 -3.738281 8.078125 -4.210938 8.078125 -4.765625 C 8.078125 -5.304688 7.878906 -5.773438 7.484375 -6.171875 C 7.097656 -6.566406 6.597656 -6.765625 5.984375 -6.765625 L 4.578125 -6.765625 L 4.578125 -2.765625 Z M 5.984375 -2.765625 "/></g></g></g><g fill="#272424" fill-opacity="1"><g transform="translate(72.808877, 41.503079)"><g><path d="M 5.828125 0.25 C 4.890625 0.25 4 0.0351562 3.15625 -0.390625 C 2.3125 -0.816406 1.628906 -1.421875 1.109375 -2.203125 C 0.597656 -2.992188 0.34375 -3.910156 0.34375 -4.953125 C 0.34375 -5.992188 0.597656 -6.90625 1.109375 -7.6875 C 1.628906 -8.476562 2.3125 -9.085938 3.15625 -9.515625 C 4 -9.941406 4.890625 -10.15625 5.828125 -10.15625 C 6.765625 -10.15625 7.65625 -9.941406 8.5 -9.515625 C 9.34375 -9.085938 10.019531 -8.476562 10.53125 -7.6875 C 11.050781 -6.90625 11.3125 -5.992188 11.3125 -4.953125 C 11.3125 -3.910156 11.050781 -2.992188 10.53125 -2.203125 C 10.019531 -1.421875 9.34375 -0.816406 8.5 -0.390625 C 7.65625 0.0351562 6.765625 0.25 5.828125 0.25 Z M 5.828125 -2.609375 C 6.484375 -2.609375 7.03125 -2.828125 7.46875 -3.265625 C 7.914062 -3.710938 8.140625 -4.273438 8.140625 -4.953125 C 8.140625 -5.628906 7.914062 -6.1875 7.46875 -6.625 C 7.03125 -7.070312 6.484375 -7.296875 5.828125 -7.296875 C 5.171875 -7.296875 4.625 -7.070312 4.1875 -6.625 C 3.75 -6.1875 3.53125 -5.628906 3.53125 -4.953125 C 3.53125 -4.273438 3.75 -3.710938 4.1875 -3.265625 C 4.625 -2.828125 5.171875 -2.609375 5.828125 -2.609375 Z M 5.828125 -2.609375 "/></g></g></g><g fill="#272424" fill-opacity="1"><g transform="translate(84.081184, 41.503079)"><g/></g></g><g fill="#272424" fill-opacity="1"><g transform="translate(89.126938, 41.503079)"><g><path d="M 7.578125 0.25 C 6.304688 0.25 5.128906 -0.0351562 4.046875 -0.609375 C 2.960938 -1.179688 2.09375 -1.992188 1.4375 -3.046875 C 0.789062 -4.097656 0.46875 -5.304688 0.46875 -6.671875 C 0.46875 -8.023438 0.789062 -9.226562 1.4375 -10.28125 C 2.09375 -11.332031 2.960938 -12.144531 4.046875 -12.71875 C 5.128906 -13.289062 6.304688 -13.578125 7.578125 -13.578125 C 8.734375 -13.578125 9.796875 -13.347656 10.765625 -12.890625 C 11.742188 -12.429688 12.554688 -11.785156 13.203125 -10.953125 C 13.859375 -10.128906 14.296875 -9.175781 14.515625 -8.09375 L 11.078125 -8.09375 C 10.859375 -8.789062 10.4375 -9.367188 9.8125 -9.828125 C 9.195312 -10.296875 8.453125 -10.53125 7.578125 -10.53125 C 6.878906 -10.53125 6.25 -10.359375 5.6875 -10.015625 C 5.125 -9.679688 4.675781 -9.222656 4.34375 -8.640625 C 4.019531 -8.054688 3.859375 -7.398438 3.859375 -6.671875 C 3.859375 -5.929688 4.019531 -5.269531 4.34375 -4.6875 C 4.675781 -4.101562 5.125 -3.640625 5.6875 -3.296875 C 6.25 -2.960938 6.878906 -2.796875 7.578125 -2.796875 C 8.453125 -2.796875 9.195312 -3.023438 9.8125 -3.484375 C 10.4375 -3.953125 10.859375 -4.535156 11.078125 -5.234375 L 14.515625 -5.234375 C 14.296875 -4.160156 13.859375 -3.207031 13.203125 -2.375 C 12.554688 -1.539062 11.742188 -0.894531 10.765625 -0.4375 C 9.796875 0.0195312 8.734375 0.25 7.578125 0.25 Z M 7.578125 0.25 "/></g></g></g><g fill="#272424" fill-opacity="1"><g transform="translate(103.636281, 41.503079)"><g><path d="M 5.671875 0.25 C 4.679688 0.25 3.820312 0.0507812 3.09375 -0.34375 C 2.363281 -0.75 1.804688 -1.316406 1.421875 -2.046875 C 1.046875 -2.773438 0.859375 -3.625 0.859375 -4.59375 L 0.859375 -9.90625 L 4.03125 -9.90625 L 4.03125 -4.515625 C 4.03125 -3.921875 4.179688 -3.453125 4.484375 -3.109375 C 4.785156 -2.773438 5.179688 -2.609375 5.671875 -2.609375 C 6.160156 -2.609375 6.554688 -2.78125 6.859375 -3.125 C 7.160156 -3.46875 7.3125 -3.929688 7.3125 -4.515625 L 7.3125 -9.90625 L 10.5 -9.90625 L 10.5 -4.59375 C 10.5 -3.625 10.304688 -2.773438 9.921875 -2.046875 C 9.546875 -1.316406 8.988281 -0.75 8.25 -0.34375 C 7.519531 0.0507812 6.660156 0.25 5.671875 0.25 Z M 5.671875 0.25 "/></g></g></g><g fill="#272424" fill-opacity="1"><g transform="translate(114.603926, 41.503079)"><g><path d="M 12.796875 -10.15625 C 13.535156 -10.15625 14.179688 -9.984375 14.734375 -9.640625 C 15.285156 -9.296875 15.710938 -8.8125 16.015625 -8.1875 C 16.316406 -7.5625 16.46875 -6.84375 16.46875 -6.03125 L 16.46875 0 L 13.296875 0 L 13.296875 -5.46875 C 13.296875 -6.039062 13.164062 -6.488281 12.90625 -6.8125 C 12.644531 -7.132812 12.289062 -7.296875 11.84375 -7.296875 C 11.414062 -7.296875 11.050781 -7.128906 10.75 -6.796875 C 10.445312 -6.460938 10.296875 -6.019531 10.296875 -5.46875 L 10.296875 0 L 7.125 0 L 7.125 -5.46875 C 7.125 -6.039062 6.992188 -6.488281 6.734375 -6.8125 C 6.472656 -7.132812 6.117188 -7.296875 5.671875 -7.296875 C 5.242188 -7.296875 4.878906 -7.128906 4.578125 -6.796875 C 4.285156 -6.460938 4.140625 -6.019531 4.140625 -5.46875 L 4.140625 0 L 0.953125 0 L 0.953125 -9.90625 L 3.8125 -9.90625 L 3.8125 -8.859375 C 4.5625 -9.722656 5.5 -10.15625 6.625 -10.15625 C 7.238281 -10.15625 7.804688 -10.007812 8.328125 -9.71875 C 8.859375 -9.425781 9.269531 -9.03125 9.5625 -8.53125 C 10.4375 -9.613281 11.515625 -10.15625 12.796875 -10.15625 Z M 12.796875 -10.15625 "/></g></g></g><g fill="#272424" fill-opacity="1"><g transform="translate(131.550574, 41.503079)"><g><path d="M 5.671875 -10.15625 C 6.660156 -10.15625 7.566406 -9.921875 8.390625 -9.453125 C 9.210938 -8.984375 9.851562 -8.34375 10.3125 -7.53125 C 10.78125 -6.726562 10.992188 -5.835938 10.953125 -4.859375 L 3.53125 -4.859375 C 3.539062 -4.097656 3.738281 -3.5 4.125 -3.0625 C 4.519531 -2.632812 5.050781 -2.421875 5.71875 -2.421875 C 6.144531 -2.421875 6.523438 -2.515625 6.859375 -2.703125 C 7.203125 -2.890625 7.472656 -3.164062 7.671875 -3.53125 L 10.796875 -3.53125 C 10.421875 -2.320312 9.796875 -1.390625 8.921875 -0.734375 C 8.054688 -0.078125 6.972656 0.25 5.671875 0.25 C 4.722656 0.25 3.84375 0.0351562 3.03125 -0.390625 C 2.21875 -0.828125 1.566406 -1.4375 1.078125 -2.21875 C 0.585938 -3.007812 0.34375 -3.921875 0.34375 -4.953125 C 0.34375 -5.984375 0.585938 -6.890625 1.078125 -7.671875 C 1.566406 -8.460938 2.21875 -9.070312 3.03125 -9.5 C 3.84375 -9.9375 4.722656 -10.15625 5.671875 -10.15625 Z M 5.671875 -7.484375 C 5.066406 -7.484375 4.566406 -7.285156 4.171875 -6.890625 C 3.785156 -6.492188 3.570312 -5.941406 3.53125 -5.234375 L 7.828125 -5.234375 C 7.785156 -5.910156 7.578125 -6.453125 7.203125 -6.859375 C 6.828125 -7.273438 6.316406 -7.484375 5.671875 -7.484375 Z M 5.671875 -7.484375 "/></g></g></g><g fill="#272424" fill-opacity="1"><g transform="translate(62.063669, 50.675969)"><g><path d="M 0.34375 0 L 0.34375 -4.84375 L 1.328125 -4.84375 L 1.328125 0 Z M 0.34375 0 "/></g></g></g><g fill="#272424" fill-opacity="1"><g transform="translate(66.630583, 50.675969)"><g><path d="M 0.4375 -4.484375 C 0.550781 -4.609375 0.6875 -4.671875 0.84375 -4.671875 C 1.007812 -4.671875 1.148438 -4.609375 1.265625 -4.484375 C 1.378906 -4.367188 1.4375 -4.234375 1.4375 -4.078125 C 1.4375 -3.921875 1.378906 -3.78125 1.265625 -3.65625 C 1.148438 -3.539062 1.007812 -3.484375 0.84375 -3.484375 C 0.6875 -3.484375 0.550781 -3.539062 0.4375 -3.65625 C 0.320312 -3.78125 0.265625 -3.921875 0.265625 -4.078125 C 0.265625 -4.234375 0.320312 -4.367188 0.4375 -4.484375 Z M 0.34375 -2.890625 L 0.34375 0 L 1.328125 0 L 1.328125 -2.890625 Z M 0.34375 -2.890625 "/></g></g></g><g fill="#272424" fill-opacity="1"><g transform="translate(71.225582, 50.675969)"><g><path d="M 0.203125 0.703125 L 1.03125 0.3125 C 1.175781 0.5625 1.4375 0.6875 1.8125 0.6875 C 1.976562 0.6875 2.132812 0.628906 2.28125 0.515625 C 2.4375 0.398438 2.515625 0.226562 2.515625 0 L 2.515625 -0.203125 C 2.335938 -0.015625 2.019531 0.078125 1.5625 0.078125 C 1.144531 0.078125 0.800781 -0.0664062 0.53125 -0.359375 C 0.257812 -0.648438 0.125 -1.007812 0.125 -1.4375 C 0.125 -1.863281 0.257812 -2.222656 0.53125 -2.515625 C 0.800781 -2.816406 1.144531 -2.96875 1.5625 -2.96875 C 1.9375 -2.96875 2.242188 -2.851562 2.484375 -2.625 L 2.515625 -2.625 L 2.515625 -2.890625 L 3.5 -2.890625 L 3.5 0.078125 C 3.5 0.546875 3.34375 0.90625 3.03125 1.15625 C 2.726562 1.414062 2.320312 1.546875 1.8125 1.546875 C 0.976562 1.546875 0.441406 1.265625 0.203125 0.703125 Z M 1.375 -1.921875 C 1.25 -1.796875 1.1875 -1.632812 1.1875 -1.4375 C 1.1875 -1.238281 1.25 -1.078125 1.375 -0.953125 C 1.5 -0.828125 1.660156 -0.765625 1.859375 -0.765625 C 2.054688 -0.765625 2.21875 -0.828125 2.34375 -0.953125 C 2.46875 -1.078125 2.53125 -1.238281 2.53125 -1.4375 C 2.53125 -1.632812 2.460938 -1.796875 2.328125 -1.921875 C 2.203125 -2.054688 2.046875 -2.125 1.859375 -2.125 C 1.671875 -2.125 1.507812 -2.054688 1.375 -1.921875 Z M 1.375 -1.921875 "/></g></g></g><g fill="#272424" fill-opacity="1"><g transform="translate(77.960806, 50.675969)"><g><path d="M 0.34375 0 L 0.34375 -4.84375 L 1.328125 -4.84375 L 1.328125 -2.578125 L 1.34375 -2.578125 C 1.601562 -2.835938 1.878906 -2.96875 2.171875 -2.96875 C 2.316406 -2.96875 2.457031 -2.945312 2.59375 -2.90625 C 2.738281 -2.875 2.875 -2.816406 3 -2.734375 C 3.125 -2.660156 3.226562 -2.550781 3.3125 -2.40625 C 3.394531 -2.257812 3.4375 -2.09375 3.4375 -1.90625 L 3.4375 0 L 2.4375 0 L 2.4375 -1.625 C 2.4375 -1.78125 2.390625 -1.910156 2.296875 -2.015625 C 2.203125 -2.128906 2.078125 -2.1875 1.921875 -2.1875 C 1.773438 -2.1875 1.640625 -2.128906 1.515625 -2.015625 C 1.390625 -1.898438 1.328125 -1.769531 1.328125 -1.625 L 1.328125 0 Z M 0.34375 0 "/></g></g></g><g fill="#272424" fill-opacity="1"><g transform="translate(84.572447, 50.675969)"><g><path d="M 0.5 -2.890625 L 0.5 -3.953125 L 1.5 -3.953125 L 1.5 -2.890625 L 2.109375 -2.890625 L 2.109375 -2.125 L 1.5 -2.125 L 1.5 -1.203125 C 1.5 -0.941406 1.578125 -0.8125 1.734375 -0.8125 C 1.765625 -0.8125 1.800781 -0.816406 1.84375 -0.828125 C 1.882812 -0.847656 1.914062 -0.863281 1.9375 -0.875 L 1.96875 -0.90625 L 2.21875 -0.09375 C 2.007812 0.0195312 1.765625 0.078125 1.484375 0.078125 C 1.296875 0.078125 1.132812 0.046875 1 -0.015625 C 0.863281 -0.078125 0.757812 -0.160156 0.6875 -0.265625 C 0.625 -0.378906 0.578125 -0.5 0.546875 -0.625 C 0.515625 -0.75 0.5 -0.878906 0.5 -1.015625 L 0.5 -2.125 L 0.09375 -2.125 L 0.09375 -2.890625 Z M 0.5 -2.890625 "/></g></g></g><g fill="#272424" fill-opacity="1"><g transform="translate(89.689866, 50.675969)"><g/></g></g><g fill="#272424" fill-opacity="1"><g transform="translate(94.12196, 50.675969)"><g><path d="M 3.015625 -4.640625 L 3.015625 -3.71875 L 1.390625 -3.71875 L 1.390625 -2.796875 L 2.890625 -2.796875 L 2.890625 -1.859375 L 1.390625 -1.859375 L 1.390625 0 L 0.34375 0 L 0.34375 -4.640625 Z M 3.015625 -4.640625 "/></g></g></g><g fill="#272424" fill-opacity="1"><g transform="translate(100.205567, 50.675969)"><g><path d="M 0.609375 -0.34375 C 0.285156 -0.625 0.125 -0.988281 0.125 -1.4375 C 0.125 -1.882812 0.289062 -2.25 0.625 -2.53125 C 0.957031 -2.820312 1.375 -2.96875 1.875 -2.96875 C 2.351562 -2.96875 2.757812 -2.820312 3.09375 -2.53125 C 3.425781 -2.25 3.59375 -1.882812 3.59375 -1.4375 C 3.59375 -1 3.425781 -0.632812 3.09375 -0.34375 C 2.769531 -0.0625 2.363281 0.078125 1.875 0.078125 C 1.351562 0.078125 0.929688 -0.0625 0.609375 -0.34375 Z M 1.375 -1.921875 C 1.25 -1.796875 1.1875 -1.632812 1.1875 -1.4375 C 1.1875 -1.238281 1.25 -1.078125 1.375 -0.953125 C 1.5 -0.828125 1.660156 -0.765625 1.859375 -0.765625 C 2.054688 -0.765625 2.21875 -0.828125 2.34375 -0.953125 C 2.46875 -1.078125 2.53125 -1.238281 2.53125 -1.4375 C 2.53125 -1.632812 2.460938 -1.796875 2.328125 -1.921875 C 2.203125 -2.054688 2.046875 -2.125 1.859375 -2.125 C 1.671875 -2.125 1.507812 -2.054688 1.375 -1.921875 Z M 1.375 -1.921875 "/></g></g></g><g fill="#272424" fill-opacity="1"><g transform="translate(106.817208, 50.675969)"><g><path d="M 0.609375 -0.34375 C 0.285156 -0.625 0.125 -0.988281 0.125 -1.4375 C 0.125 -1.882812 0.289062 -2.25 0.625 -2.53125 C 0.957031 -2.820312 1.375 -2.96875 1.875 -2.96875 C 2.351562 -2.96875 2.757812 -2.820312 3.09375 -2.53125 C 3.425781 -2.25 3.59375 -1.882812 3.59375 -1.4375 C 3.59375 -1 3.425781 -0.632812 3.09375 -0.34375 C 2.769531 -0.0625 2.363281 0.078125 1.875 0.078125 C 1.351562 0.078125 0.929688 -0.0625 0.609375 -0.34375 Z M 1.375 -1.921875 C 1.25 -1.796875 1.1875 -1.632812 1.1875 -1.4375 C 1.1875 -1.238281 1.25 -1.078125 1.375 -0.953125 C 1.5 -0.828125 1.660156 -0.765625 1.859375 -0.765625 C 2.054688 -0.765625 2.21875 -0.828125 2.34375 -0.953125 C 2.46875 -1.078125 2.53125 -1.238281 2.53125 -1.4375 C 2.53125 -1.632812 2.460938 -1.796875 2.328125 -1.921875 C 2.203125 -2.054688 2.046875 -2.125 1.859375 -2.125 C 1.671875 -2.125 1.507812 -2.054688 1.375 -1.921875 Z M 1.375 -1.921875 "/></g></g></g><g fill="#272424" fill-opacity="1"><g transform="translate(113.428849, 50.675969)"><g><path d="M 0.53125 -0.359375 C 0.257812 -0.648438 0.125 -1.007812 0.125 -1.4375 C 0.125 -1.863281 0.257812 -2.222656 0.53125 -2.515625 C 0.800781 -2.816406 1.144531 -2.96875 1.5625 -2.96875 C 1.945312 -2.96875 2.265625 -2.847656 2.515625 -2.609375 L 2.515625 -4.84375 L 3.5 -4.84375 L 3.5 0 L 2.515625 0 L 2.515625 -0.328125 C 2.265625 -0.0546875 1.945312 0.078125 1.5625 0.078125 C 1.144531 0.078125 0.800781 -0.0664062 0.53125 -0.359375 Z M 1.375 -1.921875 C 1.25 -1.796875 1.1875 -1.632812 1.1875 -1.4375 C 1.1875 -1.238281 1.25 -1.078125 1.375 -0.953125 C 1.5 -0.828125 1.660156 -0.765625 1.859375 -0.765625 C 2.054688 -0.765625 2.21875 -0.828125 2.34375 -0.953125 C 2.46875 -1.078125 2.53125 -1.238281 2.53125 -1.4375 C 2.53125 -1.632812 2.460938 -1.796875 2.328125 -1.921875 C 2.203125 -2.054688 2.046875 -2.125 1.859375 -2.125 C 1.671875 -2.125 1.507812 -2.054688 1.375 -1.921875 Z M 1.375 -1.921875 "/></g></g></g></svg>