<svg xmlns="http://www.w3.org/2000/svg" xmlns:xlink="http://www.w3.org/1999/xlink" width="500" zoomAndPan="magnify" viewBox="0 0 375 374.999991" height="500" preserveAspectRatio="xMidYMid meet" version="1.0"><defs><g/><clipPath id="e03dc38baf"><path d="M 187.5 0 C 83.945312 0 0 83.945312 0 187.5 C 0 291.054688 83.945312 375 187.5 375 C 291.054688 375 375 291.054688 375 187.5 C 375 83.945312 291.054688 0 187.5 0 " clip-rule="nonzero"/></clipPath><clipPath id="9a61fa4db9"><path d="M 86.453125 133 L 288.683594 133 L 288.683594 221.65625 L 86.453125 221.65625 Z M 86.453125 133 " clip-rule="nonzero"/></clipPath><clipPath id="a91d0243a9"><path d="M 173 54 L 203 54 L 203 80.082031 L 173 80.082031 Z M 173 54 " clip-rule="nonzero"/></clipPath><clipPath id="d519c09070"><path d="M 164.113281 146 L 210.613281 146 L 210.613281 208 L 164.113281 208 Z M 164.113281 146 " clip-rule="nonzero"/></clipPath></defs><g clip-path="url(#e03dc38baf)"><rect x="-37.5" width="450" fill="#ffffff" y="-37.499999" height="449.999989" fill-opacity="1"/></g><g clip-path="url(#9a61fa4db9)"><path fill="#5271ff" d="M 285.039062 133.785156 L 90.097656 133.785156 C 87.652344 133.785156 86.453125 135.097656 86.453125 137.808594 C 86.453125 140.734375 87.78125 142.136719 89.863281 142.316406 C 93.328125 142.621094 101.910156 143.375 106.21875 143.734375 C 107.78125 143.875 108.949219 144.738281 109.234375 146.140625 C 111.171875 155.691406 117.222656 186.179688 120.242188 200.132812 C 124.171875 218.304688 133.4375 221.84375 147.367188 221.84375 L 227.746094 221.84375 C 241.699219 221.84375 250.945312 218.304688 254.894531 200.132812 C 257.910156 186.179688 263.941406 155.691406 265.898438 146.140625 C 266.167969 144.757812 267.335938 143.875 268.914062 143.734375 C 273.226562 143.375 281.808594 142.621094 285.273438 142.316406 C 287.355469 142.136719 288.683594 140.734375 288.683594 137.808594 C 288.699219 135.097656 287.480469 133.785156 285.039062 133.785156 " fill-opacity="1" fill-rule="nonzero"/></g><path fill="#5271ff" d="M 112.503906 130.175781 C 131.496094 129.082031 188.445312 125.8125 188.445312 125.8125 L 188.734375 125.8125 L 264.714844 121.449219 C 266.832031 121.34375 266.546875 120.210938 266.367188 119.691406 C 262.523438 108.808594 227.335938 105.449219 191.320312 107.136719 L 191.625 107.121094 L 191.175781 99.21875 L 198.339844 98.789062 C 202.46875 98.554688 203.132812 95.179688 199.957031 93.042969 C 197.101562 91.121094 192.414062 89.503906 186.6875 89.757812 L 186.6875 89.738281 C 186.632812 89.738281 186.578125 89.757812 186.542969 89.757812 C 186.488281 89.757812 186.4375 89.757812 186.382812 89.757812 L 186.398438 89.773438 C 180.671875 90.171875 176.203125 92.308594 173.582031 94.550781 C 170.671875 97.046875 171.695312 100.316406 175.824219 100.082031 L 183.007812 99.6875 L 183.457031 107.585938 L 183.761719 107.570312 C 148.535156 109.941406 114.710938 118.59375 110.867188 128.21875 C 110.582031 128.902344 110.671875 130.285156 112.503906 130.175781 " fill-opacity="1" fill-rule="nonzero"/><path fill="#5271ff" d="M 223.421875 95.878906 C 222.613281 97.226562 223.042969 98.988281 224.390625 99.8125 C 224.839844 100.082031 225.359375 100.226562 225.863281 100.226562 C 226.832031 100.226562 227.765625 99.742188 228.304688 98.84375 C 235.324219 87.296875 231.070312 80.492188 227.640625 75.015625 C 224.230469 69.539062 221.519531 65.210938 228.214844 55.605469 C 229.113281 54.292969 228.789062 52.515625 227.496094 51.617188 C 226.203125 50.71875 224.425781 51.042969 223.527344 52.335938 C 214.695312 65.050781 219.203125 72.25 222.808594 78.050781 C 226.042969 83.238281 228.609375 87.351562 223.421875 95.878906 " fill-opacity="1" fill-rule="nonzero"/><path fill="#5271ff" d="M 241.914062 97.675781 C 241.105469 99.023438 241.519531 100.78125 242.863281 101.589844 C 243.332031 101.878906 243.835938 102.003906 244.355469 102.003906 C 245.304688 102.003906 246.257812 101.519531 246.796875 100.636719 C 253.796875 89.09375 249.542969 82.269531 246.132812 76.8125 C 242.703125 71.316406 240.011719 67.007812 246.6875 57.382812 C 247.605469 56.089844 247.261719 54.3125 245.988281 53.414062 C 244.679688 52.496094 242.902344 52.839844 242.003906 54.113281 C 233.167969 66.828125 237.675781 74.027344 241.304688 79.828125 C 244.535156 85.015625 247.101562 89.128906 241.914062 97.675781 " fill-opacity="1" fill-rule="nonzero"/><path fill="#5271ff" d="M 259.886719 103.027344 C 259.058594 104.375 259.488281 106.132812 260.855469 106.957031 C 261.304688 107.226562 261.824219 107.371094 262.328125 107.371094 C 263.277344 107.371094 264.230469 106.886719 264.75 105.988281 C 271.769531 94.445312 267.535156 87.636719 264.105469 82.160156 C 260.675781 76.683594 257.980469 72.359375 264.679688 62.734375 C 265.558594 61.441406 265.253906 59.664062 263.941406 58.765625 C 262.667969 57.867188 260.871094 58.191406 259.992188 59.484375 C 251.160156 72.195312 255.648438 79.394531 259.257812 85.195312 C 262.507812 90.386719 265.074219 94.496094 259.886719 103.027344 " fill-opacity="1" fill-rule="nonzero"/><g clip-path="url(#a91d0243a9)"><path fill="#ff1616" d="M 201.972656 60.757812 C 200.351562 52.507812 190.199219 52.371094 187.695312 60.082031 C 185.1875 52.371094 175.035156 52.507812 173.414062 60.757812 C 171.945312 68.242188 187.695312 80.046875 187.695312 80.046875 C 187.695312 80.046875 203.445312 68.242188 201.972656 60.757812 Z M 201.972656 60.757812 " fill-opacity="1" fill-rule="nonzero"/></g><g clip-path="url(#d519c09070)"><path fill="#ffffff" d="M 186 166.230469 C 186.019531 166.074219 185.988281 165.914062 185.910156 165.777344 C 185.910156 165.777344 177.578125 151.308594 175.324219 147.390625 C 174.816406 146.511719 173.691406 146.207031 172.8125 146.71875 C 172.386719 146.960938 172.082031 147.363281 171.953125 147.835938 C 171.828125 148.308594 171.894531 148.8125 172.136719 149.234375 C 173.808594 152.140625 178.753906 160.722656 180.132812 163.121094 C 180.132812 163.121094 179.457031 163.511719 179.457031 163.511719 C 179.457031 163.511719 171.480469 149.65625 171.480469 149.65625 C 171.230469 149.222656 170.820312 148.910156 170.34375 148.78125 C 169.863281 148.652344 169.351562 148.71875 168.921875 148.96875 C 168.507812 149.207031 168.203125 149.605469 168.078125 150.066406 C 167.957031 150.53125 168.019531 151.027344 168.261719 151.441406 C 168.261719 151.441406 176.273438 165.355469 176.273438 165.355469 C 176.273438 165.355469 175.597656 165.75 175.597656 165.75 C 175.597656 165.75 167.601562 151.863281 167.601562 151.863281 C 167.359375 151.4375 166.957031 151.128906 166.484375 151.003906 C 166.011719 150.875 165.511719 150.941406 165.089844 151.1875 C 164.804688 151.351562 164.667969 151.6875 164.753906 152.003906 C 164.835938 152.320312 165.125 152.542969 165.453125 152.542969 C 165.125 152.542969 164.835938 152.320312 164.753906 152.003906 C 164.667969 151.6875 164.804688 151.351562 165.089844 151.1875 C 164.667969 151.429688 164.359375 151.835938 164.234375 152.304688 C 164.105469 152.777344 164.171875 153.28125 164.417969 153.707031 C 166.671875 157.621094 175.003906 172.09375 175.003906 172.09375 C 175.082031 172.226562 175.203125 172.335938 175.347656 172.398438 L 180.25 174.496094 C 180.25 174.496094 197.960938 205.253906 197.960938 205.253906 C 199.390625 207.738281 202.558594 208.589844 205.039062 207.152344 C 204.824219 207.28125 204.675781 207.25 204.675781 207.25 C 204.933594 207.25 205.175781 207.113281 205.304688 206.886719 C 205.433594 206.664062 205.433594 206.386719 205.304688 206.160156 C 205.304688 206.160156 187.027344 174.421875 185.363281 171.535156 C 185.363281 171.535156 186 166.230469 186 166.230469 Z M 172.605469 206.199219 L 184.800781 185.023438 C 185 184.675781 184.878906 184.230469 184.535156 184.03125 C 184.1875 183.832031 183.742188 183.949219 183.542969 184.296875 L 170.953125 206.160156 C 170.824219 206.386719 170.824219 206.664062 170.953125 206.886719 C 171.082031 207.113281 171.324219 207.25 171.582031 207.25 C 171.582031 207.25 171.441406 207.277344 171.230469 207.160156 C 172.410156 207.84375 173.824219 208.027344 175.152344 207.671875 C 176.480469 207.316406 177.609375 206.445312 178.296875 205.253906 C 181.628906 199.46875 187.511719 189.25 187.511719 189.25 C 187.714844 188.902344 187.59375 188.457031 187.25 188.257812 C 186.902344 188.058594 186.457031 188.175781 186.257812 188.523438 C 186.257812 188.523438 180.371094 198.742188 177.042969 204.527344 C 176.546875 205.386719 175.734375 206.011719 174.777344 206.269531 C 174.058594 206.464844 173.300781 206.433594 172.605469 206.199219 Z M 203.652344 206.199219 C 201.996094 206.765625 200.121094 206.101562 199.214844 204.527344 C 193.988281 195.449219 181.382812 173.558594 181.382812 173.558594 C 181.304688 173.421875 181.183594 173.316406 181.039062 173.253906 L 176.136719 171.15625 C 176.136719 171.15625 165.671875 152.980469 165.671875 152.980469 C 165.617188 152.890625 165.605469 152.78125 165.632812 152.683594 C 165.660156 152.582031 165.722656 152.496094 165.8125 152.445312 C 165.703125 152.507812 165.578125 152.542969 165.453125 152.542969 L 165.8125 152.445312 C 165.902344 152.394531 166.011719 152.378906 166.109375 152.40625 C 166.210938 152.433594 166.292969 152.5 166.347656 152.589844 C 168.296875 155.976562 174.707031 167.105469 174.707031 167.105469 C 174.90625 167.453125 175.347656 167.570312 175.695312 167.371094 L 177.625 166.253906 C 177.972656 166.050781 178.089844 165.609375 177.890625 165.261719 C 177.890625 165.261719 171.445312 154.070312 169.515625 150.714844 C 169.46875 150.632812 169.453125 150.535156 169.480469 150.445312 C 169.503906 150.351562 169.5625 150.273438 169.644531 150.226562 C 169.742188 150.171875 169.859375 150.15625 169.964844 150.183594 C 170.074219 150.214844 170.167969 150.285156 170.222656 150.382812 L 178.566406 164.867188 C 178.765625 165.214844 179.207031 165.335938 179.554688 165.136719 L 181.484375 164.019531 C 181.832031 163.816406 181.949219 163.371094 181.75 163.027344 C 181.75 163.027344 175.34375 151.898438 173.390625 148.507812 C 173.339844 148.421875 173.328125 148.3125 173.351562 148.214844 C 173.378906 148.113281 173.445312 148.027344 173.535156 147.976562 C 173.722656 147.867188 173.960938 147.933594 174.066406 148.117188 L 184.535156 166.292969 L 183.898438 171.601562 C 183.878906 171.757812 183.910156 171.914062 183.988281 172.050781 Z M 190.851562 171.605469 L 189.164062 174.535156 C 188.964844 174.882812 189.082031 175.328125 189.429688 175.527344 C 189.777344 175.730469 190.21875 175.609375 190.417969 175.261719 L 192.269531 172.050781 L 192.199219 172.09375 C 192.335938 171.941406 192.417969 171.726562 192.320312 171.433594 C 189.917969 164.363281 192.457031 156.554688 198.558594 152.265625 C 200.085938 151.1875 201.585938 150.265625 202.898438 149.710938 C 203.691406 149.378906 204.402344 149.175781 205 149.191406 C 206.253906 149.21875 207.597656 150.011719 208.261719 151.082031 C 208.582031 151.597656 208.769531 152.316406 208.882812 153.167969 C 209.074219 154.582031 209.03125 156.332031 208.867188 158.183594 C 208.867188 158.183594 208.867188 158.1875 208.867188 158.1875 C 208.21875 165.628906 202.738281 171.746094 195.429688 173.195312 L 194.875 173.558594 L 191.417969 179.558594 C 191.21875 179.90625 191.339844 180.351562 191.683594 180.550781 C 192.03125 180.753906 192.472656 180.632812 192.675781 180.285156 L 195.96875 174.566406 C 203.777344 172.90625 209.609375 166.3125 210.3125 158.3125 C 210.609375 154.9375 210.457031 151.871094 209.492188 150.316406 C 208.582031 148.855469 206.746094 147.777344 205.03125 147.738281 C 203.234375 147.695312 200.503906 149.117188 197.722656 151.074219 C 191.183594 155.675781 188.410156 164.003906 190.851562 171.605469 Z M 197.757812 156.761719 C 199.847656 154.371094 201.90625 152.8125 203.996094 152.535156 C 204.390625 152.484375 204.671875 152.117188 204.617188 151.71875 C 204.566406 151.320312 204.203125 151.042969 203.804688 151.09375 C 201.433594 151.410156 199.039062 153.089844 196.667969 155.804688 C 196.40625 156.109375 196.4375 156.566406 196.738281 156.832031 C 197.039062 157.09375 197.496094 157.066406 197.757812 156.761719 Z M 197.757812 156.761719 " fill-opacity="1" fill-rule="evenodd"/></g><g fill="#272424" fill-opacity="1"><g transform="translate(89.032081, 283.797001)"><g><path d="M 21.359375 -17.09375 C 23.316406 -16.539062 24.851562 -15.582031 25.96875 -14.21875 C 27.09375 -12.851562 27.65625 -11.222656 27.65625 -9.328125 C 27.65625 -7.578125 27.179688 -6 26.234375 -4.59375 C 25.285156 -3.1875 23.835938 -2.066406 21.890625 -1.234375 C 19.941406 -0.410156 17.5625 0 14.75 0 L 2.984375 0 L 2.984375 -32.15625 L 14.234375 -32.15625 C 16.742188 -32.15625 18.898438 -31.8125 20.703125 -31.125 C 22.515625 -30.4375 23.894531 -29.460938 24.84375 -28.203125 C 25.800781 -26.953125 26.28125 -25.5 26.28125 -23.84375 C 26.28125 -22.21875 25.832031 -20.820312 24.9375 -19.65625 C 24.050781 -18.5 22.859375 -17.644531 21.359375 -17.09375 Z M 11.03125 -25.5 L 11.03125 -17.234375 L 13.640625 -17.234375 C 14.992188 -17.234375 16.070312 -17.632812 16.875 -18.4375 C 17.6875 -19.25 18.09375 -20.222656 18.09375 -21.359375 C 18.09375 -22.492188 17.6875 -23.46875 16.875 -24.28125 C 16.070312 -25.09375 14.992188 -25.5 13.640625 -25.5 Z M 14.421875 -6.65625 C 15.921875 -6.65625 17.140625 -7.128906 18.078125 -8.078125 C 19.015625 -9.035156 19.484375 -10.171875 19.484375 -11.484375 C 19.484375 -12.796875 19.015625 -13.925781 18.078125 -14.875 C 17.140625 -15.832031 15.921875 -16.3125 14.421875 -16.3125 L 11.03125 -16.3125 L 11.03125 -6.65625 Z M 14.421875 -6.65625 "/></g></g></g><g fill="#272424" fill-opacity="1"><g transform="translate(117.04489, 283.797001)"><g><path d="M 14.0625 0.59375 C 11.789062 0.59375 9.632812 0.0820312 7.59375 -0.9375 C 5.5625 -1.96875 3.925781 -3.429688 2.6875 -5.328125 C 1.445312 -7.222656 0.828125 -9.425781 0.828125 -11.9375 C 0.828125 -14.445312 1.445312 -16.648438 2.6875 -18.546875 C 3.925781 -20.453125 5.5625 -21.914062 7.59375 -22.9375 C 9.632812 -23.96875 11.789062 -24.484375 14.0625 -24.484375 C 16.320312 -24.484375 18.46875 -23.96875 20.5 -22.9375 C 22.539062 -21.914062 24.179688 -20.453125 25.421875 -18.546875 C 26.660156 -16.648438 27.28125 -14.445312 27.28125 -11.9375 C 27.28125 -9.425781 26.660156 -7.222656 25.421875 -5.328125 C 24.179688 -3.429688 22.539062 -1.96875 20.5 -0.9375 C 18.46875 0.0820312 16.320312 0.59375 14.0625 0.59375 Z M 14.0625 -6.296875 C 15.65625 -6.296875 16.976562 -6.832031 18.03125 -7.90625 C 19.082031 -8.976562 19.609375 -10.320312 19.609375 -11.9375 C 19.609375 -13.5625 19.082031 -14.910156 18.03125 -15.984375 C 16.976562 -17.054688 15.65625 -17.59375 14.0625 -17.59375 C 12.46875 -17.59375 11.140625 -17.054688 10.078125 -15.984375 C 9.023438 -14.910156 8.5 -13.5625 8.5 -11.9375 C 8.5 -10.320312 9.023438 -8.976562 10.078125 -7.90625 C 11.140625 -6.832031 12.46875 -6.296875 14.0625 -6.296875 Z M 14.0625 -6.296875 "/></g></g></g><g fill="#272424" fill-opacity="1"><g transform="translate(144.231086, 283.797001)"><g/></g></g><g fill="#272424" fill-opacity="1"><g transform="translate(156.400427, 283.797001)"><g><path d="M 18.28125 0.59375 C 15.21875 0.59375 12.375 -0.09375 9.75 -1.46875 C 7.132812 -2.84375 5.046875 -4.800781 3.484375 -7.34375 C 1.929688 -9.882812 1.15625 -12.796875 1.15625 -16.078125 C 1.15625 -19.359375 1.929688 -22.269531 3.484375 -24.8125 C 5.046875 -27.351562 7.132812 -29.3125 9.75 -30.6875 C 12.375 -32.0625 15.21875 -32.75 18.28125 -32.75 C 21.070312 -32.75 23.632812 -32.195312 25.96875 -31.09375 C 28.3125 -30 30.269531 -28.445312 31.84375 -26.4375 C 33.425781 -24.425781 34.476562 -22.125 35 -19.53125 L 26.734375 -19.53125 C 26.179688 -21.207031 25.160156 -22.601562 23.671875 -23.71875 C 22.191406 -24.84375 20.394531 -25.40625 18.28125 -25.40625 C 16.59375 -25.40625 15.066406 -25 13.703125 -24.1875 C 12.347656 -23.375 11.28125 -22.265625 10.5 -20.859375 C 9.71875 -19.453125 9.328125 -17.859375 9.328125 -16.078125 C 9.328125 -14.296875 9.71875 -12.703125 10.5 -11.296875 C 11.28125 -9.890625 12.347656 -8.78125 13.703125 -7.96875 C 15.066406 -7.15625 16.59375 -6.75 18.28125 -6.75 C 20.394531 -6.75 22.191406 -7.304688 23.671875 -8.421875 C 25.160156 -9.546875 26.179688 -10.953125 26.734375 -12.640625 L 35 -12.640625 C 34.476562 -10.035156 33.425781 -7.726562 31.84375 -5.71875 C 30.269531 -3.707031 28.3125 -2.148438 25.96875 -1.046875 C 23.632812 0.046875 21.070312 0.59375 18.28125 0.59375 Z M 18.28125 0.59375 "/></g></g></g><g fill="#272424" fill-opacity="1"><g transform="translate(191.393549, 283.797001)"><g><path d="M 13.6875 0.59375 C 11.300781 0.59375 9.226562 0.113281 7.46875 -0.84375 C 5.707031 -1.8125 4.363281 -3.175781 3.4375 -4.9375 C 2.519531 -6.695312 2.0625 -8.742188 2.0625 -11.078125 L 2.0625 -23.890625 L 9.734375 -23.890625 L 9.734375 -10.890625 C 9.734375 -9.453125 10.09375 -8.328125 10.8125 -7.515625 C 11.53125 -6.703125 12.488281 -6.296875 13.6875 -6.296875 C 14.851562 -6.296875 15.800781 -6.707031 16.53125 -7.53125 C 17.269531 -8.363281 17.640625 -9.484375 17.640625 -10.890625 L 17.640625 -23.890625 L 25.3125 -23.890625 L 25.3125 -11.078125 C 25.3125 -8.742188 24.851562 -6.695312 23.9375 -4.9375 C 23.019531 -3.175781 21.675781 -1.8125 19.90625 -0.84375 C 18.144531 0.113281 16.070312 0.59375 13.6875 0.59375 Z M 13.6875 0.59375 "/></g></g></g><g fill="#272424" fill-opacity="1"><g transform="translate(217.844976, 283.797001)"><g><path d="M 30.875 -24.484375 C 32.644531 -24.484375 34.195312 -24.066406 35.53125 -23.234375 C 36.863281 -22.410156 37.894531 -21.25 38.625 -19.75 C 39.363281 -18.25 39.734375 -16.519531 39.734375 -14.5625 L 39.734375 0 L 32.0625 0 L 32.0625 -13.1875 C 32.0625 -14.5625 31.75 -15.640625 31.125 -16.421875 C 30.5 -17.203125 29.648438 -17.59375 28.578125 -17.59375 C 27.535156 -17.59375 26.65625 -17.191406 25.9375 -16.390625 C 25.21875 -15.597656 24.859375 -14.53125 24.859375 -13.1875 L 24.859375 0 L 17.1875 0 L 17.1875 -13.1875 C 17.1875 -14.5625 16.867188 -15.640625 16.234375 -16.421875 C 15.609375 -17.203125 14.757812 -17.59375 13.6875 -17.59375 C 12.644531 -17.59375 11.765625 -17.191406 11.046875 -16.390625 C 10.328125 -15.597656 9.96875 -14.53125 9.96875 -13.1875 L 9.96875 0 L 2.296875 0 L 2.296875 -23.890625 L 9.1875 -23.890625 L 9.1875 -21.359375 C 10.988281 -23.441406 13.253906 -24.484375 15.984375 -24.484375 C 17.453125 -24.484375 18.820312 -24.128906 20.09375 -23.421875 C 21.363281 -22.722656 22.351562 -21.773438 23.0625 -20.578125 C 25.175781 -23.179688 27.78125 -24.484375 30.875 -24.484375 Z M 30.875 -24.484375 "/></g></g></g><g fill="#272424" fill-opacity="1"><g transform="translate(258.716265, 283.797001)"><g><path d="M 13.6875 -24.484375 C 16.070312 -24.484375 18.253906 -23.914062 20.234375 -22.78125 C 22.210938 -21.644531 23.757812 -20.101562 24.875 -18.15625 C 25.988281 -16.21875 26.503906 -14.070312 26.421875 -11.71875 L 8.5 -11.71875 C 8.53125 -9.875 9.019531 -8.429688 9.96875 -7.390625 C 10.914062 -6.347656 12.1875 -5.828125 13.78125 -5.828125 C 14.820312 -5.828125 15.75 -6.054688 16.5625 -6.515625 C 17.375 -6.984375 18.023438 -7.644531 18.515625 -8.5 L 26.046875 -8.5 C 25.128906 -5.59375 23.617188 -3.347656 21.515625 -1.765625 C 19.421875 -0.191406 16.8125 0.59375 13.6875 0.59375 C 11.394531 0.59375 9.265625 0.0703125 7.296875 -0.96875 C 5.335938 -2.007812 3.769531 -3.476562 2.59375 -5.375 C 1.414062 -7.269531 0.828125 -9.457031 0.828125 -11.9375 C 0.828125 -14.425781 1.414062 -16.617188 2.59375 -18.515625 C 3.769531 -20.410156 5.335938 -21.878906 7.296875 -22.921875 C 9.265625 -23.960938 11.394531 -24.484375 13.6875 -24.484375 Z M 13.6875 -18.046875 C 12.21875 -18.046875 11.015625 -17.570312 10.078125 -16.625 C 9.148438 -15.675781 8.625 -14.347656 8.5 -12.640625 L 18.875 -12.640625 C 18.789062 -14.253906 18.296875 -15.554688 17.390625 -16.546875 C 16.484375 -17.546875 15.25 -18.046875 13.6875 -18.046875 Z M 13.6875 -18.046875 "/></g></g></g><g fill="#272424" fill-opacity="1"><g transform="translate(115.429504, 311.179866)"><g><path d="M 0.875 0 L 0.875 -12.625 L 3.484375 -12.625 L 3.484375 0 Z M 0.875 0 "/></g></g></g><g fill="#272424" fill-opacity="1"><g transform="translate(127.355731, 311.179866)"><g><path d="M 1.125 -11.71875 C 1.425781 -12.019531 1.785156 -12.171875 2.203125 -12.171875 C 2.628906 -12.171875 2.992188 -12.019531 3.296875 -11.71875 C 3.597656 -11.414062 3.75 -11.050781 3.75 -10.625 C 3.75 -10.207031 3.597656 -9.847656 3.296875 -9.546875 C 2.992188 -9.242188 2.628906 -9.09375 2.203125 -9.09375 C 1.785156 -9.09375 1.425781 -9.242188 1.125 -9.546875 C 0.820312 -9.847656 0.671875 -10.207031 0.671875 -10.625 C 0.671875 -11.050781 0.820312 -11.414062 1.125 -11.71875 Z M 0.875 -7.53125 L 0.875 0 L 3.484375 0 L 3.484375 -7.53125 Z M 0.875 -7.53125 "/></g></g></g><g fill="#272424" fill-opacity="1"><g transform="translate(139.355271, 311.179866)"><g><path d="M 0.546875 1.84375 L 2.671875 0.8125 C 3.054688 1.457031 3.734375 1.78125 4.703125 1.78125 C 5.160156 1.78125 5.582031 1.632812 5.96875 1.34375 C 6.351562 1.050781 6.546875 0.609375 6.546875 0.015625 L 6.546875 -0.546875 C 6.085938 -0.0351562 5.265625 0.21875 4.078125 0.21875 C 2.992188 0.21875 2.097656 -0.160156 1.390625 -0.921875 C 0.691406 -1.691406 0.34375 -2.632812 0.34375 -3.75 C 0.34375 -4.863281 0.691406 -5.804688 1.390625 -6.578125 C 2.097656 -7.359375 2.992188 -7.75 4.078125 -7.75 C 5.046875 -7.75 5.851562 -7.453125 6.5 -6.859375 L 6.546875 -6.859375 L 6.546875 -7.53125 L 9.140625 -7.53125 L 9.140625 0.203125 C 9.140625 1.429688 8.734375 2.375 7.921875 3.03125 C 7.109375 3.695312 6.035156 4.03125 4.703125 4.03125 C 2.554688 4.03125 1.171875 3.300781 0.546875 1.84375 Z M 3.59375 -5.03125 C 3.257812 -4.695312 3.09375 -4.269531 3.09375 -3.75 C 3.09375 -3.238281 3.253906 -2.816406 3.578125 -2.484375 C 3.898438 -2.160156 4.328125 -2 4.859375 -2 C 5.367188 -2 5.785156 -2.164062 6.109375 -2.5 C 6.441406 -2.832031 6.609375 -3.25 6.609375 -3.75 C 6.609375 -4.269531 6.4375 -4.695312 6.09375 -5.03125 C 5.757812 -5.363281 5.347656 -5.53125 4.859375 -5.53125 C 4.359375 -5.53125 3.9375 -5.363281 3.59375 -5.03125 Z M 3.59375 -5.03125 "/></g></g></g><g fill="#272424" fill-opacity="1"><g transform="translate(156.941154, 311.179866)"><g><path d="M 0.875 0 L 0.875 -12.625 L 3.484375 -12.625 L 3.484375 -6.734375 L 3.5 -6.734375 C 4.175781 -7.410156 4.894531 -7.75 5.65625 -7.75 C 6.03125 -7.75 6.398438 -7.695312 6.765625 -7.59375 C 7.140625 -7.5 7.492188 -7.347656 7.828125 -7.140625 C 8.160156 -6.941406 8.429688 -6.648438 8.640625 -6.265625 C 8.859375 -5.890625 8.96875 -5.453125 8.96875 -4.953125 L 8.96875 0 L 6.375 0 L 6.375 -4.25 C 6.375 -4.644531 6.25 -4.988281 6 -5.28125 C 5.75 -5.570312 5.421875 -5.71875 5.015625 -5.71875 C 4.628906 -5.71875 4.273438 -5.566406 3.953125 -5.265625 C 3.640625 -4.960938 3.484375 -4.625 3.484375 -4.25 L 3.484375 0 Z M 0.875 0 "/></g></g></g><g fill="#272424" fill-opacity="1"><g transform="translate(174.204482, 311.179866)"><g><path d="M 1.328125 -7.53125 L 1.328125 -10.328125 L 3.921875 -10.328125 L 3.921875 -7.53125 L 5.5 -7.53125 L 5.5 -5.546875 L 3.921875 -5.546875 L 3.921875 -3.15625 C 3.921875 -2.457031 4.113281 -2.109375 4.5 -2.109375 C 4.601562 -2.109375 4.707031 -2.128906 4.8125 -2.171875 C 4.914062 -2.210938 5 -2.25 5.0625 -2.28125 L 5.15625 -2.34375 L 5.796875 -0.25 C 5.234375 0.0625 4.597656 0.21875 3.890625 0.21875 C 3.398438 0.21875 2.976562 0.132812 2.625 -0.03125 C 2.269531 -0.207031 2.003906 -0.4375 1.828125 -0.71875 C 1.648438 -1.007812 1.519531 -1.3125 1.4375 -1.625 C 1.363281 -1.945312 1.328125 -2.289062 1.328125 -2.65625 L 1.328125 -5.546875 L 0.234375 -5.546875 L 0.234375 -7.53125 Z M 1.328125 -7.53125 "/></g></g></g><g fill="#272424" fill-opacity="1"><g transform="translate(187.567622, 311.179866)"><g/></g></g><g fill="#272424" fill-opacity="1"><g transform="translate(199.141956, 311.179866)"><g><path d="M 7.875 -12.109375 L 7.875 -9.6875 L 3.640625 -9.6875 L 3.640625 -7.28125 L 7.5625 -7.28125 L 7.5625 -4.859375 L 3.640625 -4.859375 L 3.640625 0 L 0.875 0 L 0.875 -12.109375 Z M 7.875 -12.109375 "/></g></g></g><g fill="#272424" fill-opacity="1"><g transform="translate(215.027011, 311.179866)"><g><path d="M 1.59375 -0.890625 C 0.757812 -1.640625 0.34375 -2.59375 0.34375 -3.75 C 0.34375 -4.914062 0.773438 -5.875 1.640625 -6.625 C 2.515625 -7.375 3.59375 -7.75 4.875 -7.75 C 6.132812 -7.75 7.195312 -7.367188 8.0625 -6.609375 C 8.925781 -5.859375 9.359375 -4.90625 9.359375 -3.75 C 9.359375 -2.601562 8.9375 -1.65625 8.09375 -0.90625 C 7.25 -0.15625 6.175781 0.21875 4.875 0.21875 C 3.519531 0.21875 2.425781 -0.148438 1.59375 -0.890625 Z M 3.59375 -5.03125 C 3.257812 -4.695312 3.09375 -4.269531 3.09375 -3.75 C 3.09375 -3.238281 3.253906 -2.816406 3.578125 -2.484375 C 3.898438 -2.160156 4.328125 -2 4.859375 -2 C 5.367188 -2 5.785156 -2.164062 6.109375 -2.5 C 6.441406 -2.832031 6.609375 -3.25 6.609375 -3.75 C 6.609375 -4.269531 6.4375 -4.695312 6.09375 -5.03125 C 5.757812 -5.363281 5.347656 -5.53125 4.859375 -5.53125 C 4.359375 -5.53125 3.9375 -5.363281 3.59375 -5.03125 Z M 3.59375 -5.03125 "/></g></g></g><g fill="#272424" fill-opacity="1"><g transform="translate(232.290339, 311.179866)"><g><path d="M 1.59375 -0.890625 C 0.757812 -1.640625 0.34375 -2.59375 0.34375 -3.75 C 0.34375 -4.914062 0.773438 -5.875 1.640625 -6.625 C 2.515625 -7.375 3.59375 -7.75 4.875 -7.75 C 6.132812 -7.75 7.195312 -7.367188 8.0625 -6.609375 C 8.925781 -5.859375 9.359375 -4.90625 9.359375 -3.75 C 9.359375 -2.601562 8.9375 -1.65625 8.09375 -0.90625 C 7.25 -0.15625 6.175781 0.21875 4.875 0.21875 C 3.519531 0.21875 2.425781 -0.148438 1.59375 -0.890625 Z M 3.59375 -5.03125 C 3.257812 -4.695312 3.09375 -4.269531 3.09375 -3.75 C 3.09375 -3.238281 3.253906 -2.816406 3.578125 -2.484375 C 3.898438 -2.160156 4.328125 -2 4.859375 -2 C 5.367188 -2 5.785156 -2.164062 6.109375 -2.5 C 6.441406 -2.832031 6.609375 -3.25 6.609375 -3.75 C 6.609375 -4.269531 6.4375 -4.695312 6.09375 -5.03125 C 5.757812 -5.363281 5.347656 -5.53125 4.859375 -5.53125 C 4.359375 -5.53125 3.9375 -5.363281 3.59375 -5.03125 Z M 3.59375 -5.03125 "/></g></g></g><g fill="#272424" fill-opacity="1"><g transform="translate(249.553666, 311.179866)"><g><path d="M 1.390625 -0.921875 C 0.691406 -1.691406 0.34375 -2.632812 0.34375 -3.75 C 0.34375 -4.863281 0.691406 -5.804688 1.390625 -6.578125 C 2.097656 -7.359375 2.992188 -7.75 4.078125 -7.75 C 5.078125 -7.75 5.898438 -7.4375 6.546875 -6.8125 L 6.546875 -12.625 L 9.140625 -12.625 L 9.140625 0 L 6.578125 0 L 6.578125 -0.84375 L 6.546875 -0.84375 C 5.898438 -0.132812 5.078125 0.21875 4.078125 0.21875 C 2.992188 0.21875 2.097656 -0.160156 1.390625 -0.921875 Z M 3.59375 -5.03125 C 3.257812 -4.695312 3.09375 -4.269531 3.09375 -3.75 C 3.09375 -3.238281 3.253906 -2.816406 3.578125 -2.484375 C 3.898438 -2.160156 4.328125 -2 4.859375 -2 C 5.367188 -2 5.785156 -2.164062 6.109375 -2.5 C 6.441406 -2.832031 6.609375 -3.25 6.609375 -3.75 C 6.609375 -4.269531 6.4375 -4.695312 6.09375 -5.03125 C 5.757812 -5.363281 5.347656 -5.53125 4.859375 -5.53125 C 4.359375 -5.53125 3.9375 -5.363281 3.59375 -5.03125 Z M 3.59375 -5.03125 "/></g></g></g></svg>